<svg width="80" height="98" viewBox="0 0 80 98" fill="none" xmlns="http://www.w3.org/2000/svg">
<g clip-path="url(#clip0_406_119)">
<path d="M36.2352 18.7646L36.2353 18.7647C36.919 19.4483 36.919 20.5516 36.2353 21.2353L36.2353 21.2353L21.2376 36.2353C20.554 36.9189 19.4461 36.9189 18.7626 36.2353C18.0791 35.5517 18.0791 34.4483 18.7626 33.7646L18.7626 33.7646L31.9914 20.5302L32.5214 19.9999L31.9913 19.4697L18.7626 6.23771C18.7626 6.2377 18.7626 6.23769 18.7626 6.23769C18.0792 5.55408 18.0791 4.44622 18.7623 3.76252C18.7624 3.76249 18.7624 3.76245 18.7624 3.76242C18.7625 3.76237 18.7625 3.76232 18.7626 3.76226C19.4461 3.07945 20.5541 3.07945 21.2378 3.76248C21.2378 3.76251 21.2378 3.76253 21.2379 3.76256L36.2352 18.7646ZM60 33.25C60.9686 33.25 61.75 34.0314 61.75 35C61.75 35.9686 60.9686 36.75 60 36.75H37.5C36.5314 36.75 35.75 35.9686 35.75 35C35.75 34.0314 36.5314 33.25 37.5 33.25H60Z" stroke="#3294F8" stroke-width="1.5"/>
</g>
<path d="M14.4844 78.2695V85.7578C13.375 86.7734 11.1289 87.2812 7.74609 87.2812C7.08203 87.2812 6.49609 87.2539 5.98828 87.1992C5.48828 87.1445 5.02734 87.0742 4.60547 86.9883C4.19141 86.9023 3.83594 86.7578 3.53906 86.5547C3.24219 86.3438 2.98047 86.1328 2.75391 85.9219C2.52734 85.7109 2.34375 85.4062 2.20312 85.0078C2.0625 84.6016 1.94531 84.2109 1.85156 83.8359C1.76562 83.4609 1.69922 82.957 1.65234 82.3242C1.61328 81.6914 1.58594 81.0859 1.57031 80.5078C1.55469 79.9297 1.54688 79.1875 1.54688 78.2812C1.54688 77.5078 1.55078 76.8477 1.55859 76.3008C1.57422 75.7539 1.60156 75.1953 1.64062 74.625C1.6875 74.0547 1.74609 73.582 1.81641 73.207C1.89453 72.8242 1.99609 72.4414 2.12109 72.0586C2.25391 71.668 2.40625 71.3555 2.57812 71.1211C2.75 70.8789 2.96484 70.6406 3.22266 70.4062C3.48047 70.1719 3.76562 69.9922 4.07812 69.8672C4.39844 69.7422 4.76953 69.6289 5.19141 69.5273C5.61328 69.4258 6.07422 69.3594 6.57422 69.3281C7.07422 69.2891 7.64062 69.2695 8.27344 69.2695C8.3125 69.2695 8.37109 69.2695 8.44922 69.2695C8.99609 69.2695 9.41016 69.2734 9.69141 69.2812C9.97266 69.2891 10.3516 69.3203 10.8281 69.375C11.3125 69.4219 11.6836 69.5 11.9414 69.6094C12.1992 69.7109 12.4961 69.8672 12.832 70.0781C13.168 70.2812 13.418 70.5352 13.582 70.8398C13.7461 71.1367 13.8906 71.5156 14.0156 71.9766C14.1406 72.4375 14.2031 72.9688 14.2031 73.5703C14.2031 73.7109 14.1953 73.9062 14.1797 74.1562L12.082 74.5547L11.9531 72.2461C11.9375 71.7461 11.6523 71.4258 11.0977 71.2852C10.543 71.1367 9.49219 71.0625 7.94531 71.0625C6.89062 71.0625 6.09375 71.1289 5.55469 71.2617C5.01562 71.3867 4.64062 71.582 4.42969 71.8477C4.21875 72.1133 4.08984 72.5078 4.04297 73.0312C3.97266 74.6328 3.9375 76.2734 3.9375 77.9531C3.9375 79.6406 3.97266 81.2812 4.04297 82.875C4.08203 83.7188 4.14844 84.2656 4.24219 84.5156C4.39062 84.8984 4.73047 85.1562 5.26172 85.2891C5.76172 85.4141 6.63281 85.4766 7.875 85.4766C10.5469 85.4766 12.0273 85.2969 12.3164 84.9375C12.3086 84.1328 12.3047 82.5 12.3047 80.0391H9.35156L9.15234 78.2695H14.4844ZM20.25 87H17.9414V74.1445H20.25V87ZM20.25 69.1758V71.2031H17.9414V69.1758H20.25ZM29.0508 85.3711L29.0039 87.0117C28.3477 87.1211 27.7539 87.1758 27.2227 87.1758C26.6523 87.1758 26.1797 87.1133 25.8047 86.9883C25.4375 86.8633 25.1602 86.6641 24.9727 86.3906C24.7852 86.1172 24.6562 85.8164 24.5859 85.4883C24.5156 85.1523 24.4805 84.7266 24.4805 84.2109V75.457H22.7344V74.1445H24.4805V70.4883L26.7773 70.3008V74.1445H29.1445V75.457H26.7773V83.4258C26.7773 84.2695 26.8164 84.8164 26.8945 85.0664C26.9805 85.3164 27.207 85.4414 27.5742 85.4414C27.9336 85.4414 28.4258 85.418 29.0508 85.3711ZM44.5078 81.9727C44.5 82.4648 44.4805 82.8984 44.4492 83.2734C44.4258 83.6406 44.3828 83.9883 44.3203 84.3164C44.2578 84.6445 44.1914 84.9219 44.1211 85.1484C44.0508 85.375 43.9375 85.5898 43.7812 85.793C43.6328 85.9883 43.4883 86.1484 43.3477 86.2734C43.207 86.3906 43.0039 86.5 42.7383 86.6016C42.4805 86.6953 42.2305 86.7656 41.9883 86.8125C41.7461 86.8594 41.4219 86.8984 41.0156 86.9297C40.6172 86.9609 40.2305 86.9805 39.8555 86.9883C39.4883 86.9961 39.0234 87 38.4609 87H32.2031V69.5391H38.8359C39.7188 69.5391 40.4492 69.5859 41.0273 69.6797C41.6133 69.7656 42.1289 69.9258 42.5742 70.1602C43.0273 70.3945 43.3555 70.7266 43.5586 71.1562C43.7617 71.5859 43.8672 72.1328 43.875 72.7969L43.8867 74.0625C43.8867 74.5938 43.8672 75.0273 43.8281 75.3633C43.7891 75.6992 43.7188 76.0039 43.6172 76.2773C43.5234 76.5508 43.3789 76.7656 43.1836 76.9219C42.9883 77.0781 42.75 77.2109 42.4688 77.3203C42.1953 77.4219 41.8398 77.5117 41.4023 77.5898C41.9336 77.6445 42.3906 77.7617 42.7734 77.9414C43.1562 78.1211 43.457 78.3359 43.6758 78.5859C43.9023 78.8359 44.0781 79.1523 44.2031 79.5352C44.3281 79.918 44.4102 80.293 44.4492 80.6602C44.4883 81.0273 44.5078 81.4648 44.5078 81.9727ZM41.5664 73.5586C41.5664 73.543 41.5664 73.5195 41.5664 73.4883C41.5664 73.1602 41.5664 72.9297 41.5664 72.7969C41.5664 72.6562 41.543 72.4883 41.4961 72.293C41.457 72.0898 41.4141 71.957 41.3672 71.8945C41.3281 71.832 41.2305 71.75 41.0742 71.6484C40.9258 71.5391 40.7773 71.4766 40.6289 71.4609C40.4805 71.4375 40.2461 71.4102 39.9258 71.3789C39.6133 71.3398 39.3008 71.3203 38.9883 71.3203C38.6758 71.3203 38.25 71.3203 37.7109 71.3203H34.5586V76.9219H36.9141C37.9375 76.9219 38.7656 76.8945 39.3984 76.8398C40.0312 76.7773 40.5 76.6758 40.8047 76.5352C41.1172 76.3867 41.3203 76.2305 41.4141 76.0664C41.5156 75.9023 41.5664 75.6836 41.5664 75.4102V73.5586ZM42.1875 81.4102C42.1719 80.4805 42.1367 79.8945 42.082 79.6523C41.9727 79.2227 41.7031 78.9297 41.2734 78.7734C40.7422 78.5703 39.5547 78.4648 37.7109 78.457C37.5859 78.457 37.4492 78.457 37.3008 78.457H34.5586V85.2305H39.0352C39.9414 85.2305 40.625 85.1562 41.0859 85.0078C41.5469 84.8516 41.8516 84.6211 42 84.3164C42.1484 84.0117 42.2188 83.5625 42.2109 82.9688L42.1875 81.4102ZM49.9336 87H47.625V69.5859L49.9336 69.3984V87ZM58.6758 85.5586C59.7852 85.5352 60.5547 85.4531 60.9844 85.3125C61.4219 85.1719 61.6406 84.8945 61.6406 84.4805C61.7266 83.3633 61.7695 82.0703 61.7695 80.6016C61.7695 80.1172 61.75 79.4258 61.7109 78.5273C61.6719 77.6211 61.6523 76.9492 61.6523 76.5117C61.6523 76.3789 61.6289 76.2578 61.582 76.1484C61.543 76.0391 61.4727 75.9492 61.3711 75.8789C61.2773 75.8008 61.1797 75.7344 61.0781 75.6797C60.9844 75.625 60.8477 75.582 60.668 75.5508C60.4961 75.5195 60.3477 75.4922 60.2227 75.4688C60.1055 75.4453 59.9336 75.4297 59.707 75.4219C59.4883 75.4141 59.3164 75.4102 59.1914 75.4102C59.0742 75.4102 58.8984 75.4102 58.6641 75.4102C58.4297 75.4102 58.25 75.4102 58.125 75.4102C58.0078 75.4102 57.8359 75.4141 57.6094 75.4219C57.3906 75.4297 57.2188 75.4453 57.0938 75.4688C56.9766 75.4922 56.8281 75.5195 56.6484 75.5508C56.4766 75.582 56.3398 75.625 56.2383 75.6797C56.1445 75.7344 56.0469 75.8008 55.9453 75.8789C55.8516 75.9492 55.7812 76.0391 55.7344 76.1484C55.6953 76.2578 55.6758 76.3789 55.6758 76.5117C55.6758 76.9492 55.6562 77.6211 55.6172 78.5273C55.5781 79.4258 55.5586 80.1172 55.5586 80.6016C55.5586 82.0703 55.6016 83.3633 55.6875 84.4805C55.6875 84.8945 55.9141 85.1797 56.3672 85.3359C56.8281 85.4844 57.5977 85.5586 58.6758 85.5586ZM58.6523 87.1758C57.7852 87.1758 57.0625 87.1406 56.4844 87.0703C55.9062 87 55.4062 86.8477 54.9844 86.6133C54.5703 86.3711 54.2539 86.1172 54.0352 85.8516C53.8164 85.5781 53.6445 85.1523 53.5195 84.5742C53.3945 83.9883 53.3164 83.4102 53.2852 82.8398C53.2617 82.2695 53.25 81.4766 53.25 80.4609C53.25 79.7031 53.2578 79.0703 53.2734 78.5625C53.2969 78.0547 53.3438 77.5586 53.4141 77.0742C53.4844 76.582 53.5703 76.1875 53.6719 75.8906C53.7812 75.5859 53.9336 75.3008 54.1289 75.0352C54.332 74.7617 54.5586 74.5547 54.8086 74.4141C55.0586 74.2734 55.375 74.1523 55.7578 74.0508C56.1484 73.9414 56.5703 73.8711 57.0234 73.8398C57.4844 73.8008 58.0312 73.7812 58.6641 73.7812C59.2969 73.7812 59.8398 73.8008 60.293 73.8398C60.7539 73.8711 61.1758 73.9414 61.5586 74.0508C61.9492 74.1523 62.2695 74.2734 62.5195 74.4141C62.7695 74.5547 62.9922 74.7617 63.1875 75.0352C63.3906 75.3008 63.543 75.5859 63.6445 75.8906C63.7539 76.1875 63.8438 76.582 63.9141 77.0742C63.9844 77.5586 64.0273 78.0547 64.043 78.5625C64.0664 79.0703 64.0781 79.7031 64.0781 80.4609C64.0781 81.4766 64.0625 82.2695 64.0312 82.8398C64.0078 83.4102 63.9336 83.9883 63.8086 84.5742C63.6836 85.1523 63.5078 85.5781 63.2812 85.8516C63.0625 86.125 62.7422 86.3789 62.3203 86.6133C61.9062 86.8477 61.4102 87 60.832 87.0703C60.2539 87.1406 59.5273 87.1758 58.6523 87.1758ZM77.4609 74.1445V85.3711C77.4609 86.1445 77.4336 86.7969 77.3789 87.3281C77.332 87.8594 77.2383 88.3555 77.0977 88.8164C76.9648 89.2773 76.7812 89.6445 76.5469 89.918C76.3125 90.1992 76 90.4414 75.6094 90.6445C75.2266 90.8477 74.7734 90.9883 74.25 91.0664C73.7266 91.1445 73.0977 91.1836 72.3633 91.1836C70.832 91.1836 69.6133 91.0234 68.707 90.7031L68.8594 89.1094C69.7344 89.3516 70.7734 89.4727 71.9766 89.4727C72.5469 89.4727 73.0273 89.4414 73.418 89.3789C73.8164 89.3164 74.125 89.2383 74.3438 89.1445C74.5703 89.0508 74.7422 88.9141 74.8594 88.7344C74.9844 88.5625 75.0625 88.3906 75.0938 88.2188C75.1328 88.0469 75.1523 87.8281 75.1523 87.5625L75.1406 85.4648C74.9297 86.0117 74.5664 86.4102 74.0508 86.6602C73.5352 86.9102 72.8086 87.0352 71.8711 87.0352C71.1992 87.0352 70.6133 86.9883 70.1133 86.8945C69.6133 86.8008 69.1875 86.6836 68.8359 86.543C68.4844 86.4023 68.1914 86.1836 67.957 85.8867C67.7305 85.582 67.5508 85.2969 67.418 85.0312C67.2852 84.7578 67.1875 84.3711 67.125 83.8711C67.0625 83.3633 67.0234 82.9102 67.0078 82.5117C66.9922 82.1055 66.9844 81.5547 66.9844 80.8594C66.9844 79.9766 66.9922 79.2852 67.0078 78.7852C67.0234 78.2852 67.0586 77.7461 67.1133 77.168C67.168 76.582 67.2578 76.1406 67.3828 75.8438C67.5078 75.5469 67.668 75.2461 67.8633 74.9414C68.0664 74.6289 68.3281 74.4062 68.6484 74.2734C68.9688 74.1406 69.3438 74.0312 69.7734 73.9453C70.2109 73.8594 70.7305 73.8164 71.332 73.8164C72.3555 73.8164 73.1758 73.957 73.793 74.2383C74.4102 74.5117 74.8594 74.957 75.1406 75.5742L75.3633 74.1445H77.4609ZM75.1523 84.3867V77.2383C75.1523 76.582 74.9336 76.1133 74.4961 75.832C74.0664 75.543 73.293 75.3984 72.1758 75.3984C71.082 75.3984 70.332 75.4961 69.9258 75.6914C69.4883 75.9023 69.2695 76.7578 69.2695 78.2578C69.2695 80.5156 69.3008 82.4844 69.3633 84.1641C69.3867 84.5312 69.4805 84.8008 69.6445 84.9727C69.8164 85.1445 70.1055 85.2656 70.5117 85.3359C70.918 85.3984 71.5547 85.4297 72.4219 85.4297C74.1641 85.4297 75.0742 85.082 75.1523 84.3867Z" fill="#3294F8"/>
<defs>
<clipPath id="clip0_406_119">
<rect width="45" height="40" fill="white" transform="translate(17.5)"/>
</clipPath>
</defs>
</svg>
